HIERARCHY
ROOT RootJoint
{
    OFFSET   0.000000   0.000000   0.000000
    CHANNELS 6 Xposition Yposition Zposition Xrotation Yrotation Zrotation
    JOINT pelvis_lowerback
    {
        OFFSET   0.000000   0.093605   0.000000
        CHANNELS 3 Xrotation Yrotation Zrotation
        JOINT lowerback_torso
        {
            OFFSET   0.000000   0.100000   0.000000
            CHANNELS 3 Xrotation Yrotation Zrotation
            JOINT torso_head
            {
                OFFSET   0.000000   0.282350   0.000000
                CHANNELS 3 Xrotation Yrotation Zrotation
                End Site
                {
                    OFFSET   0.000000   0.192650   0.000000
                }
            }
            JOINT rTorso_Clavicle
            {
                OFFSET  -0.001000   0.157500   0.000000
                CHANNELS 3 Xrotation Yrotation Zrotation
                JOINT rShoulder
                {
                    OFFSET  -0.117647   0.000000   0.000000
                    CHANNELS 3 Xrotation Yrotation Zrotation
                    JOINT rElbow
                    {
                        OFFSET  -0.245000   0.000000   0.000000
                        CHANNELS 3 Xrotation Yrotation Zrotation
                        JOINT rWrist
                        {
                            OFFSET  -0.240000   0.000000   0.000000
                            CHANNELS 3 Xrotation Yrotation Zrotation
                            End Site
                            {
                                OFFSET  -0.116353  -0.002500   0.000000
                            }
                        }
                    }
                }
            }
            JOINT lTorso_Clavicle
            {
                OFFSET   0.001000   0.157500   0.000000
                CHANNELS 3 Xrotation Yrotation Zrotation
                JOINT lShoulder
                {
                    OFFSET   0.117647   0.000000   0.000000
                    CHANNELS 3 Xrotation Yrotation Zrotation
                    JOINT lElbow
                    {
                        OFFSET   0.245000   0.000000   0.000000
                        CHANNELS 3 Xrotation Yrotation Zrotation
                        JOINT lWrist
                        {
                            OFFSET   0.240000   0.000000   0.000000
                            CHANNELS 3 Xrotation Yrotation Zrotation
                            End Site
                            {
                                OFFSET   0.116353  -0.002500   0.000000
                            }
                        }
                    }
                }
            }
        }
    }
    JOINT rHip
    {
        OFFSET  -0.100000  -0.051395   0.000000
        CHANNELS 3 Xrotation Yrotation Zrotation
        JOINT rKnee
        {
            OFFSET   0.000000  -0.410000   0.000000
            CHANNELS 3 Xrotation Yrotation Zrotation
            JOINT rAnkle
            {
                OFFSET   0.000000  -0.390000   0.000000
                CHANNELS 3 Xrotation Yrotation Zrotation
                JOINT rToeJoint
                {
                    OFFSET   0.000000  -0.050000   0.130000
                    CHANNELS 3 Xrotation Yrotation Zrotation
                    End Site
                    {
                        OFFSET  -0.010000   0.002000   0.060000
                    }
                }
            }
        }
    }
    JOINT lHip
    {
        OFFSET   0.100000  -0.051395   0.000000
        CHANNELS 3 Xrotation Yrotation Zrotation
        JOINT lKnee
        {
            OFFSET   0.000000  -0.410000   0.000000
            CHANNELS 3 Xrotation Yrotation Zrotation
            JOINT lAnkle
            {
                OFFSET   0.000000  -0.390000   0.000000
                CHANNELS 3 Xrotation Yrotation Zrotation
                JOINT lToeJoint
                {
                    OFFSET   0.000000  -0.050000   0.130000
                    CHANNELS 3 Xrotation Yrotation Zrotation
                    End Site
                    {
                        OFFSET   0.010000   0.002000   0.060000
                    }
                }
            }
        }
    }
}
MOTION
Frames: 5
Frame Time:   0.008333
 -2.371689   1.040846   3.987017  -7.659537  -2.432566  -5.698070  10.608642   1.796496  -1.639699   6.111907  -3.972414   3.104396   8.076383   4.597402   0.711916   2.197983  -8.302659  -9.577450   8.200230  -2.902152  28.181662   0.022705  71.996051  -0.020935  -2.246691   1.950011   6.172677   5.597930  -6.758934  16.332979   4.716418 -12.735037 -30.838400   0.002043 -77.774444   0.001690  -5.184546  -8.764077  -8.724162 -61.729370  -0.344893 -15.811770  80.380962   0.001993   0.000539  -5.093607  -0.863618  15.581354   2.154158  -0.000854   0.000568   5.111806   6.329736  -0.095656   4.459045  -0.002279  -0.000285  70.660034   2.336269   2.616668 -24.692375   0.062908  -0.067314
 -2.371924   1.036990   3.987062  -7.629047  -2.414564  -5.359465  10.527597   1.799299  -1.885235   6.040141  -3.975356   2.835256   7.955108   4.389278   0.751938   2.132182  -8.094498  -9.445033   7.776819  -2.503407  28.371208   0.021272  71.438413  -0.020894  -2.141926   1.978095   6.130063   5.721259  -7.045173  16.300185   4.643074 -12.857475 -30.740326   0.001487 -77.550502   0.001349  -4.963190  -8.634721  -8.725790 -61.193924  -0.250217 -15.910027  80.008687   0.001730   0.000211  -5.027459  -0.910688  15.679516   2.452086  -0.001057   0.000322   5.231361   6.080035  -0.427311   4.934146  -0.001960  -0.001024  70.765479   2.185969   2.657297 -33.535036   0.068703  -0.019976
 -2.372146   1.033635   3.986940  -7.481229  -2.301466  -5.061784  10.398307   1.766687  -2.042701   5.920595  -4.006026   2.616588   7.813967   4.189316   0.791378   2.071971  -7.865497  -9.355346   7.374147  -2.114894  28.534457   0.019059  70.905909  -0.019621  -2.032472   1.917578   6.113510   5.837724  -7.358506  16.304764   4.564171 -13.001341 -30.637304   0.000993 -77.347934   0.000830  -4.753417  -8.531723  -8.796263 -60.581813  -0.175636 -15.970844  79.600440   0.001180  -0.000536  -4.963956  -0.955499  15.769623   2.749103  -0.000952   0.000380   5.214188   5.818888  -0.665222   5.210988  -0.001720  -0.001060  70.827463   1.849630   2.658751 -40.381479   0.051180   0.012200
 -2.372314   1.030545   3.986712  -7.268072  -2.145362  -4.772450  10.254399   1.727127  -2.152772   5.778765  -4.044269   2.434025   7.673618   4.002461   0.830254   2.010047  -7.635704  -9.303083   6.988071  -1.746319  28.670702   0.016524  70.411884  -0.017663  -1.927555   1.859588   6.084013   5.934873  -7.673224  16.341876   4.476362 -13.147468 -30.524440   0.000700 -77.167737   0.000379  -4.558664  -8.476355  -8.859847 -59.936097  -0.115675 -16.010687  79.230163   0.000655  -0.001292  -4.903596  -0.997162  15.853185   3.027075  -0.000766   0.000505   5.107074   5.574325  -0.882504   5.395871  -0.001474  -0.000908  70.880142   1.476425   2.647507 -46.139738   0.029758   0.028820
 -2.372131   1.029658   3.986339  -7.067058  -2.057321  -4.174610  10.185852   1.710834  -2.482539   5.682750  -4.068262   2.176527   7.542506   3.828427   0.860401   1.952815  -7.391118  -9.123761   6.625044  -1.377896  28.860220   0.011969  69.950430  -0.014080  -1.822925   1.800091   6.046628   6.031844  -7.992593  16.295087   4.388454 -13.289585 -30.439840  -0.000347 -76.980025  -0.000591  -4.356048  -8.360822  -8.869809 -59.160124  -0.001668 -16.171913  78.797846   0.000921  -0.001822  -4.846409  -1.039408  15.927411   3.292756  -0.001036   0.000370   4.923953   5.335175  -1.491305   5.459200  -0.001168  -0.000773  70.605340   1.339218   2.739683 -45.911798   0.023951   0.022463
